<?xml version="1.0" encoding="UTF-8"?>
<svg id="Layer_1" data-name="Layer 1" xmlns="http://www.w3.org/2000/svg" xmlns:xlink="http://www.w3.org/1999/xlink" viewBox="0 0 1440 1087">
  <defs>
    <linearGradient id="New_Gradient_Swatch_2" data-name="New Gradient Swatch 2" x1="182.61" y1="526.84" x2="483.08" y2="526.84" gradientUnits="userSpaceOnUse">
      <stop offset=".14" stop-color="#5b007f"/>
      <stop offset=".84" stop-color="#aa7fff"/>
    </linearGradient>
    <linearGradient id="New_Gradient_Swatch_2-2" data-name="New Gradient Swatch 2" x1="172.23" y1="611.93" x2="485.1" y2="611.93" xlink:href="#New_Gradient_Swatch_2"/>
  </defs>
  <rect x="97.84" y="366.32" width="1244.33" height="377.08" rx="140" ry="140" style="fill: #091728;"/>
  <g>
    <path d="M763.53,645.14l-24.49.21-.03-115.87,23.99-.36.87,10.45c7.83-9.69,17.97-12.5,29.71-12.69,23.96-.38,43.82,16.04,45.73,40.44,1.94,24.87-12.17,44.83-35.81,49.03-14.9,2.65-28.96-1.09-39.74-11.52l-.22,40.31ZM814.23,571.75c0-14.24-11.55-25.78-25.81-25.78s-25.81,11.54-25.81,25.78,11.55,25.78,25.81,25.78,25.81-11.54,25.81-25.78Z" style="fill: #fff;"/>
    <path d="M580.47,594.96c16.89,3.09,32.46-2.03,45.54-13.33l14.24,15.81c-5.56,7.26-13.31,11.32-22.04,14.56-19.68,7.29-41.44,6.79-61.05-.9-21.72-8.52-35.17-28.31-36.39-51.42-1.28-24.3,11.04-45.37,32.99-56.15,25.16-12.36,63.8-11.37,86.18,8.28l-12.39,17.82c-15.22-11.6-34.07-16.79-52.46-11.03-17.12,5.37-27.56,20.07-27.31,37.87.28,19.21,13.08,34.9,32.69,38.49Z" style="fill: #fff;"/>
    <rect x="651.99" y="497.27" width="23.36" height="115.24" style="fill: #fff;"/>
    <rect x="695.4" y="529.24" width="24.58" height="85.85" style="fill: #fff;"/>
    <path d="M717.41,497.55c5.17,3.85,5.55,10.27,3.68,15.4-1.95,5.33-7.07,8-13.15,8.14-6.82.15-11.9-2.86-13.84-8.46-2.16-6.24-.44-13.09,5.65-16.42,5.4-2.95,12.39-2.58,17.66,1.34Z" style="fill: #fff;"/>
  </g>
  <g>
    <path d="M961.05,537.55l-33.35,55.94-16.83-.09-17.31-28.88-15.39-26.41.14,76.78-24.01-.05-.15-115.56,26.97-.16,38.9,64.92,39.53-64.41c8.69-.66,17.32-.78,26.3-.44l.03,115.78-24.76-.1-.08-77.32Z" style="fill: #b57fff;"/>
    <path d="M1180.04,614.03c-11.38-4.5-17.03-14.09-16.43-24.82,1.46-26.54,39.04-26.95,60.11-27.3,1.69-8.61-5.45-15.54-14.51-16.15-10.86-.73-20.67,3.3-29.38,10.02l-12.32-13.61c12.81-15.55,39.61-17.52,57.61-13.23,13.11,3.12,23.47,13.49,23.57,27.62l.4,58.07-21.54.45-1.05-7.82c-13.59,9.54-30.67,13.01-46.46,6.76ZM1224.04,589.71l.18-13c-9.76-.32-35.33-.58-35.49,12.25-.05,3.56,2.43,7.35,6.29,8.56,10.16,3.18,22.05,1.29,29.02-7.8Z" style="fill: #b57fff;"/>
    <path d="M1155.36,595.06l.15,19.04c-11.45,4.05-23.46,4.32-34.93-.1-8.44-3.26-14.62-10.89-14.68-20.33l-.29-44.07-12.04-.52-.08-19.59,12.11-.32.15-23.12,24.26-2.09.31,25.26,22.64.27.03,19.84-22.76.19.1,37.56c.01,5.3,4.21,9.94,9.43,9.92s9.55-.78,15.6-1.92Z" style="fill: #b57fff;"/>
    <path d="M1072.42,587.87c5.12,3.21,14.6,9.43,13.36,14.89-.29,1.27-1.9,2.83-3.51,3.93-21.74,14.94-57.89,14.15-73.66-4.68-13.77-16.43-14.47-40.81-2.63-58.54,11-16.46,36.66-18.91,54.57-14.74,15.3,3.56,26.21,16.57,27.64,32.14.49,5.38.35,10.09.23,16.33l-66.28.17c.94,9.29,6.92,15.14,14.98,17.72,12.09,3.87,24.15,1,35.29-7.22ZM1063.33,561.13c-1.57-12.6-11.75-16.9-21.75-16.15-9.56.64-17.97,6.41-18.92,16.13h40.67Z" style="fill: #b57fff;"/>
  </g>
  <g>
    <path d="M302.75,562.05c6.97,2.85,11.44,4.48,18.36,1.25l71.33-33.27c2.6-1.21,4.62-6.72,1.24-8.09l-76.78-31.24c-5.66-1.18-15.07,1.23-15.13,7.96l-.44,51.3-106.47-42.83c-2.29-.92-.11-6.8,2.27-6.83l69.9-30.6,59.8-25.71,110.38,42.99,36.42,14.96c5.19,2.93,9.24,7.51,9.44,13.59.15,4.4-2.12,12.66-7.74,15.35l-154.22,73.65c-8.92,4.26-19.94,7.3-29.39,3.32l-66.16-27.87-42.96-17.91c-.05-2.59.87-6.93,2.48-8.51l45.54-21.02,72.12,29.51Z" style="fill: url(#New_Gradient_Swatch_2);"/>
    <path d="M291.56,661.59l-116.33-51.48c-1.97-.87-3.25-4.83-2.96-6.53.33-1.91,2.22-5.67,4.21-6.57l29.68-13.47,77.34,32.71c10.11,4.28,21.68,7.77,32.47,2.69l81.08-38.2,48.19-23.12,35.27,14.35c6.4,2.61,5.3,11.91,1.7,16.48-4.82,4.76-9.81,7.35-16.03,10.17l-104.92,47.56-38.88,17.41c-10.39,4.66-20.41,2.59-30.81-2.01Z" style="fill: url(#New_Gradient_Swatch_2-2);"/>
  </g>
</svg>