<?xml version="1.0" encoding="UTF-8"?>
<svg id="Layer_1" data-name="Layer 1" xmlns="http://www.w3.org/2000/svg" xmlns:xlink="http://www.w3.org/1999/xlink" viewBox="0 0 1440 1087">
  <defs>
    <linearGradient id="New_Gradient_Swatch_2" data-name="New Gradient Swatch 2" x1="272.06" y1="471.25" x2="1193.61" y2="471.25" gradientUnits="userSpaceOnUse">
      <stop offset=".14" stop-color="#5b007f"/>
      <stop offset=".84" stop-color="#aa7fff"/>
    </linearGradient>
    <linearGradient id="New_Gradient_Swatch_2-2" data-name="New Gradient Swatch 2" x1="240.21" y1="732.22" x2="1199.79" y2="732.22" xlink:href="#New_Gradient_Swatch_2"/>
  </defs>
  <path d="M640.54,579.24c21.39,8.75,35.09,13.73,56.31,3.83l218.76-102.05c7.96-3.71,14.18-20.6,3.81-24.82l-235.5-95.81c-17.37-3.61-46.22,3.79-46.4,24.41l-1.34,157.35-326.53-131.35c-7.01-2.82-.35-20.84,6.97-20.96l214.38-93.84,183.4-78.87,338.52,131.84,111.71,45.9c15.91,8.97,28.33,23.03,28.95,41.68.45,13.49-6.5,38.84-23.74,47.07l-472.98,225.89c-27.36,13.07-61.14,22.4-90.13,10.19l-202.91-85.49-131.77-54.92c-.16-7.96,2.68-21.26,7.59-26.09l139.68-64.47,221.21,90.52Z" style="fill: url(#New_Gradient_Swatch_2);"/>
  <path d="M606.19,884.54l-356.79-157.88c-6.05-2.68-9.97-14.82-9.07-20.03,1.01-5.86,6.81-17.39,12.9-20.15l91.02-41.3,237.2,100.33c31.01,13.12,66.48,23.83,99.58,8.24l248.68-117.15,147.79-70.9,108.17,44.02c19.64,7.99,16.25,36.52,5.21,50.54-14.79,14.6-30.08,22.53-49.18,31.18l-321.79,145.86-119.25,53.4c-31.88,14.28-62.6,7.95-94.48-6.16Z" style="fill: url(#New_Gradient_Swatch_2-2);"/>
</svg>